<?xml version="1.0" encoding="utf-8"?>
<!-- Generator: Adobe Illustrator 26.3.0, SVG Export Plug-In . SVG Version: 6.00 Build 0)  -->
<svg width="80px" version="1.1" id="Capa_1" xmlns="http://www.w3.org/2000/svg" xmlns:xlink="http://www.w3.org/1999/xlink" x="0px" y="0px"
	 viewBox="0 0 58.2 34.8" style="enable-background:new 0 0 58.2 34.8;" xml:space="preserve">
<style type="text/css">
	.st0{fill:#D6E507;}
	.st1{fill:#FFFFFF;}
	.st2{fill:#E6C705;stroke:#D6E507;stroke-miterlimit:10;}
</style>
<ellipse class="st0" cx="19.3" cy="16.4" rx="8.3" ry="7.9"/>
<path id="XMLID_67_" class="st1" d="M47,22c-0.2-0.1-0.3-0.3-0.4-0.5c-1-3.2-4.2-5.5-7.8-5.5c-0.7,0-1.3,0.1-2,0.2
	c-0.4,0.1-0.9-0.1-1.2-0.4c-1.7-2.3-4.4-3.7-7.4-3.7c-2.2,0-4.4,0.8-6,2.2c-1.6,1.4-2.7,3.3-2.9,5.4c0,0.4-0.3,0.7-0.6,0.8
	c-0.1,0-0.2,0.1-0.3,0.2c-0.1,0-0.2,0.1-0.3,0.1c-1.5,0.3-2.9,1.1-3.9,2.3c-1,1.2-1.5,2.6-1.5,4.1c0,3.6,3.1,6.5,6.9,6.5h23
	c3.8,0,6.9-2.9,6.9-6.5C49.7,25.1,48.7,23.2,47,22z"/>
<line class="st2" x1="25.2" y1="9.6" x2="28.7" y2="5.2"/>
<line class="st2" x1="18.6" y1="7.7" x2="18.5" y2="2.1"/>
<line class="st2" x1="12.4" y1="10.8" x2="8.2" y2="7"/>
<line class="st2" x1="10.2" y1="16.5" x2="4.6" y2="16.6"/>
<line class="st2" x1="12.1" y1="22" x2="8.2" y2="26"/>
</svg>
