<?xml version="1.0" encoding="utf-8"?>
<!-- Generator: Adobe Illustrator 26.3.0, SVG Export Plug-In . SVG Version: 6.00 Build 0)  -->
<svg width="16px" version="1.1" id="Capa_1" xmlns="http://www.w3.org/2000/svg" xmlns:xlink="http://www.w3.org/1999/xlink" x="0px" y="0px"
	 viewBox="0 0 16 16" style="enable-background:new 0 0 16 16;" xml:space="preserve">
<style type="text/css">
	.st0{fill:#FFFFFF;}
</style>
<g>
	<path class="st0" d="M15.81,7.18L15.81,7.18l0.1,0.13c0,0,0,0,0.03,0c0.02,0,0.02-0.07,0.02-0.11c-0.24-3.56-3.69-6.38-7.92-6.38
		c-4.22,0-7.66,2.81-7.91,6.36c0.01,0.1,0.14,0,0.14,0v0C0.48,6.9,0.92,6.72,1.42,6.72c0.52,0,0.96,0.2,1.18,0.48
		c0.07,0.09,0.21,0.09,0.28,0C3.1,6.91,3.55,6.72,4.07,6.72c0.52,0,0.96,0.2,1.18,0.48c0.07,0.09,0.21,0.09,0.28,0
		c0.22-0.29,0.66-0.48,1.18-0.48c0.52,0,0.96,0.2,1.18,0.48c0.07,0.09,0.21,0.09,0.28,0c0.22-0.29,0.66-0.48,1.18-0.48
		c0.52,0,0.96,0.2,1.18,0.48c0.07,0.09,0.21,0.09,0.28,0c0.22-0.29,0.66-0.48,1.18-0.48c0.52,0,0.96,0.2,1.18,0.48
		c0.07,0.09,0.21,0.09,0.28,0c0.22-0.29,0.66-0.48,1.18-0.48C15.14,6.72,15.58,6.9,15.81,7.18z"/>
	<path class="st0" d="M7.34,15.81l-0.01,0c-0.54-0.01-0.97-0.44-0.97-0.98c0-0.24,0.2-0.44,0.44-0.44c0.24,0,0.44,0.2,0.44,0.44
		c0,0.06,0.05,0.11,0.1,0.11c0.06,0,0.1-0.05,0.1-0.11V0.59c0-0.24,0.2-0.44,0.44-0.44s0.44,0.2,0.44,0.44v14.24
		C8.31,15.36,7.87,15.8,7.34,15.81L7.34,15.81z"/>
</g>
</svg>
