<?xml version="1.0" encoding="utf-8"?>
<!-- Generator: Adobe Illustrator 26.3.0, SVG Export Plug-In . SVG Version: 6.00 Build 0)  -->
<svg width="16px" version="1.1" id="Capa_1" xmlns="http://www.w3.org/2000/svg" xmlns:xlink="http://www.w3.org/1999/xlink" x="0px" y="0px"
	 viewBox="0 0 16 16" style="enable-background:new 0 0 16 16;" xml:space="preserve">
<style type="text/css">
	.st0{fill:#FFFFFE;stroke:#FFFFFF;stroke-width:0.5;stroke-miterlimit:10;}
</style>
<g id="XMLID_30_">
	<path id="XMLID_31_" class="st0" d="M9.5,4.3L9.5,4.3c0-0.1-0.2-1-1-1.4C7.9,2.5,7.1,2.6,6.1,3.1C6,3.1,5.9,3.2,5.9,3.2
		c0,0.2,0.1,0.3,0.3,0.2c0,0,0,0,0.1,0v0C6.9,3,7.8,2.9,8.3,3.2c0.6,0.3,0.7,1,0.7,1.1C9.1,5.1,9,5.7,8.6,6C8,6.6,6.9,6.5,6.9,6.5
		l0,0H0.7v0.4h6.2c0,0,0.1,0,0.3,0c0.4,0,1.2-0.1,1.7-0.6C9.3,5.9,9.6,5.2,9.5,4.3z"/>
	<path id="XMLID_38_" class="st0" d="M15.2,5.7L15.2,5.7c0-0.1-0.2-1-1-1.4c-0.6-0.3-1.5-0.3-2.5,0.2c-0.1,0-0.2,0.1-0.2,0.2
		c0,0.2,0.1,0.3,0.3,0.2c0,0,0,0,0.1,0v0c0.7-0.4,1.6-0.5,2.1-0.2c0.6,0.3,0.7,1,0.7,1.1c0.1,0.8-0.1,1.3-0.5,1.7
		c-0.6,0.6-1.7,0.5-1.7,0.5l0,0H6.8H6.5H0.7v0.4h5.8h0.3h5.8c0,0,0.1,0,0.3,0c0.4,0,1.2-0.1,1.7-0.6C15.1,7.3,15.3,6.6,15.2,5.7z"/>
	<path id="XMLID_39_" class="st0" d="M12.1,10c-0.5-0.5-1.3-0.6-1.7-0.6c-0.2,0-0.3,0-0.3,0H6.8H3.9H0.7v0.4h3.3h2.8h3.3l0,0
		c0,0,1.1-0.1,1.7,0.5c0.4,0.4,0.6,1,0.5,1.7c0,0.1-0.2,0.8-0.8,1.1c-0.5,0.3-1.3,0.2-2.1-0.2v0c0,0,0,0-0.1,0
		c-0.2-0.1-0.3,0-0.2,0.2c0,0,0.1,0.1,0.2,0.2c1,0.5,1.8,0.6,2.5,0.2c0.8-0.4,1-1.4,1-1.4l0,0C12.8,11.2,12.6,10.5,12.1,10z"/>
</g>
</svg>
